<mxfile host="app.diagrams.net" modified="2021-10-31T20:35:25.338Z" agent="5.0 (Windows NT 10.0; Win64; x64) AppleWebKit/537.36 (KHTML, like Gecko) Chrome/93.0.4577.82 YaBrowser/21.9.2.169 Yowser/2.5 Safari/537.36" etag="jJjlMRN30AX9X_JXJeYI" version="15.6.3" type="github">
  <diagram name="Page-1" id="0783ab3e-0a74-02c8-0abd-f7b4e66b4bec">
    <mxGraphModel dx="868" dy="453" grid="1" gridSize="10" guides="1" tooltips="1" connect="1" arrows="1" fold="1" page="1" pageScale="1" pageWidth="850" pageHeight="1100" background="none" math="0" shadow="0">
      <root>
        <mxCell id="0" />
        <mxCell id="1" parent="0" />
        <mxCell id="aweTBGIYeAGLDlZbZsxo-1" value="Студент" style="shape=umlActor;verticalLabelPosition=bottom;verticalAlign=top;html=1;" vertex="1" parent="1">
          <mxGeometry x="60" y="170" width="60" height="90" as="geometry" />
        </mxCell>
        <mxCell id="aweTBGIYeAGLDlZbZsxo-2" value="Преподаватель" style="shape=umlActor;verticalLabelPosition=bottom;verticalAlign=top;html=1;" vertex="1" parent="1">
          <mxGeometry x="60" y="390" width="60" height="90" as="geometry" />
        </mxCell>
        <mxCell id="aweTBGIYeAGLDlZbZsxo-8" value="Отправить сообщение" style="ellipse;whiteSpace=wrap;html=1;" vertex="1" parent="1">
          <mxGeometry x="250" y="300" width="140" height="70" as="geometry" />
        </mxCell>
        <mxCell id="aweTBGIYeAGLDlZbZsxo-9" value="Войти в ИСУ" style="ellipse;whiteSpace=wrap;html=1;" vertex="1" parent="1">
          <mxGeometry x="250" y="170" width="140" height="70" as="geometry" />
        </mxCell>
        <mxCell id="aweTBGIYeAGLDlZbZsxo-10" value="Создать набор задач для студента" style="ellipse;whiteSpace=wrap;html=1;" vertex="1" parent="1">
          <mxGeometry x="250" y="390" width="140" height="70" as="geometry" />
        </mxCell>
        <mxCell id="aweTBGIYeAGLDlZbZsxo-11" value="Оценить работы студентов" style="ellipse;whiteSpace=wrap;html=1;" vertex="1" parent="1">
          <mxGeometry x="250" y="480" width="140" height="70" as="geometry" />
        </mxCell>
        <mxCell id="aweTBGIYeAGLDlZbZsxo-23" value="Выполнить набор задач" style="ellipse;whiteSpace=wrap;html=1;" vertex="1" parent="1">
          <mxGeometry x="250" y="60" width="140" height="70" as="geometry" />
        </mxCell>
        <mxCell id="aweTBGIYeAGLDlZbZsxo-24" value="Неверный пароль" style="ellipse;whiteSpace=wrap;html=1;" vertex="1" parent="1">
          <mxGeometry x="470" y="120" width="140" height="70" as="geometry" />
        </mxCell>
        <mxCell id="aweTBGIYeAGLDlZbZsxo-25" value="Действующий пароль" style="ellipse;whiteSpace=wrap;html=1;" vertex="1" parent="1">
          <mxGeometry x="470" y="210" width="140" height="70" as="geometry" />
        </mxCell>
        <mxCell id="aweTBGIYeAGLDlZbZsxo-26" value="&quot;EXTEND&quot;" style="endArrow=open;endSize=12;dashed=1;html=1;rounded=0;entryX=0.757;entryY=0.071;entryDx=0;entryDy=0;entryPerimeter=0;" edge="1" parent="1" target="aweTBGIYeAGLDlZbZsxo-9">
          <mxGeometry width="160" relative="1" as="geometry">
            <mxPoint x="470" y="154.5" as="sourcePoint" />
            <mxPoint x="380" y="170" as="targetPoint" />
            <Array as="points">
              <mxPoint x="410" y="155" />
            </Array>
          </mxGeometry>
        </mxCell>
        <mxCell id="aweTBGIYeAGLDlZbZsxo-27" value="&quot;EXTEND&quot;" style="endArrow=open;endSize=12;dashed=1;html=1;rounded=0;" edge="1" parent="1" target="aweTBGIYeAGLDlZbZsxo-9">
          <mxGeometry width="160" relative="1" as="geometry">
            <mxPoint x="478.94" y="230" as="sourcePoint" />
            <mxPoint x="370.99999999999994" y="236.48000000000002" as="targetPoint" />
            <Array as="points">
              <mxPoint x="418.94" y="230.5" />
            </Array>
          </mxGeometry>
        </mxCell>
        <mxCell id="aweTBGIYeAGLDlZbZsxo-28" value="Просмотреть набор задач" style="ellipse;whiteSpace=wrap;html=1;" vertex="1" parent="1">
          <mxGeometry x="650" y="270" width="140" height="70" as="geometry" />
        </mxCell>
        <mxCell id="aweTBGIYeAGLDlZbZsxo-30" value="Use" style="endArrow=open;endSize=12;dashed=1;html=1;rounded=0;" edge="1" parent="1" target="aweTBGIYeAGLDlZbZsxo-28">
          <mxGeometry x="0.1848" y="10" width="160" relative="1" as="geometry">
            <mxPoint x="400" y="94.5" as="sourcePoint" />
            <mxPoint x="560" y="94.5" as="targetPoint" />
            <Array as="points">
              <mxPoint x="640" y="120" />
            </Array>
            <mxPoint as="offset" />
          </mxGeometry>
        </mxCell>
        <mxCell id="aweTBGIYeAGLDlZbZsxo-32" value="&quot;INCLUDE&quot;" style="edgeLabel;html=1;align=center;verticalAlign=middle;resizable=0;points=[];" vertex="1" connectable="0" parent="aweTBGIYeAGLDlZbZsxo-30">
          <mxGeometry x="0.0947" y="2" relative="1" as="geometry">
            <mxPoint x="9" y="-6" as="offset" />
          </mxGeometry>
        </mxCell>
        <mxCell id="aweTBGIYeAGLDlZbZsxo-31" value="Use" style="endArrow=open;endSize=12;dashed=1;html=1;rounded=0;entryX=0.5;entryY=1;entryDx=0;entryDy=0;exitX=1;exitY=0.386;exitDx=0;exitDy=0;exitPerimeter=0;" edge="1" parent="1" source="aweTBGIYeAGLDlZbZsxo-11" target="aweTBGIYeAGLDlZbZsxo-28">
          <mxGeometry width="160" relative="1" as="geometry">
            <mxPoint x="400" y="520" as="sourcePoint" />
            <mxPoint x="560" y="520" as="targetPoint" />
            <Array as="points">
              <mxPoint x="620" y="490" />
            </Array>
          </mxGeometry>
        </mxCell>
        <mxCell id="aweTBGIYeAGLDlZbZsxo-33" value="&quot;INCLUDE&quot;" style="edgeLabel;html=1;align=center;verticalAlign=middle;resizable=0;points=[];" vertex="1" connectable="0" parent="1">
          <mxGeometry x="629.9687354501289" y="109.96667076122924" as="geometry" />
        </mxCell>
        <mxCell id="aweTBGIYeAGLDlZbZsxo-34" value="&quot;INCLUDE&quot;" style="edgeLabel;html=1;align=center;verticalAlign=middle;resizable=0;points=[];" vertex="1" connectable="0" parent="1">
          <mxGeometry x="589.9987354501288" y="494.9966707612292" as="geometry">
            <mxPoint x="3" y="-1" as="offset" />
          </mxGeometry>
        </mxCell>
        <mxCell id="aweTBGIYeAGLDlZbZsxo-35" value="Отслеживание учебного процесса" style="ellipse;whiteSpace=wrap;html=1;" vertex="1" parent="1">
          <mxGeometry x="470" y="300" width="140" height="70" as="geometry" />
        </mxCell>
        <mxCell id="aweTBGIYeAGLDlZbZsxo-38" value="Use" style="endArrow=open;endSize=12;dashed=1;html=1;rounded=0;entryX=0;entryY=0.5;entryDx=0;entryDy=0;exitX=0.5;exitY=1;exitDx=0;exitDy=0;" edge="1" parent="1" source="aweTBGIYeAGLDlZbZsxo-9" target="aweTBGIYeAGLDlZbZsxo-35">
          <mxGeometry width="160" relative="1" as="geometry">
            <mxPoint x="250" y="300" as="sourcePoint" />
            <mxPoint x="410" y="300" as="targetPoint" />
            <Array as="points" />
          </mxGeometry>
        </mxCell>
        <mxCell id="aweTBGIYeAGLDlZbZsxo-40" value="&quot;INCLUDE&quot;" style="edgeLabel;html=1;align=center;verticalAlign=middle;resizable=0;points=[];rotation=0;" vertex="1" connectable="0" parent="1">
          <mxGeometry x="400" y="305" as="geometry">
            <mxPoint x="2" y="-17" as="offset" />
          </mxGeometry>
        </mxCell>
        <mxCell id="aweTBGIYeAGLDlZbZsxo-45" value="" style="endArrow=none;html=1;rounded=0;" edge="1" parent="1">
          <mxGeometry width="50" height="50" relative="1" as="geometry">
            <mxPoint x="170" y="560" as="sourcePoint" />
            <mxPoint x="170" y="40" as="targetPoint" />
          </mxGeometry>
        </mxCell>
        <mxCell id="aweTBGIYeAGLDlZbZsxo-46" value="" style="endArrow=none;html=1;rounded=0;" edge="1" parent="1">
          <mxGeometry width="50" height="50" relative="1" as="geometry">
            <mxPoint x="170" y="40" as="sourcePoint" />
            <mxPoint x="841" y="40" as="targetPoint" />
          </mxGeometry>
        </mxCell>
        <mxCell id="aweTBGIYeAGLDlZbZsxo-47" value="" style="endArrow=none;html=1;rounded=0;" edge="1" parent="1">
          <mxGeometry width="50" height="50" relative="1" as="geometry">
            <mxPoint x="840" y="560" as="sourcePoint" />
            <mxPoint x="840" y="40" as="targetPoint" />
          </mxGeometry>
        </mxCell>
        <mxCell id="aweTBGIYeAGLDlZbZsxo-48" value="" style="endArrow=none;html=1;rounded=0;" edge="1" parent="1">
          <mxGeometry width="50" height="50" relative="1" as="geometry">
            <mxPoint x="170" y="560" as="sourcePoint" />
            <mxPoint x="840" y="560" as="targetPoint" />
          </mxGeometry>
        </mxCell>
        <mxCell id="aweTBGIYeAGLDlZbZsxo-50" value="Система взаимодействия студентов и преподавателей" style="text;html=1;align=center;verticalAlign=middle;resizable=0;points=[];autosize=1;strokeColor=none;fillColor=none;" vertex="1" parent="1">
          <mxGeometry x="520" y="50" width="320" height="20" as="geometry" />
        </mxCell>
        <mxCell id="aweTBGIYeAGLDlZbZsxo-51" value="" style="endArrow=none;html=1;rounded=0;" edge="1" parent="1">
          <mxGeometry width="50" height="50" relative="1" as="geometry">
            <mxPoint x="840" y="80" as="sourcePoint" />
            <mxPoint x="521" y="40" as="targetPoint" />
            <Array as="points">
              <mxPoint x="520" y="80" />
            </Array>
          </mxGeometry>
        </mxCell>
        <mxCell id="aweTBGIYeAGLDlZbZsxo-52" value="" style="endArrow=none;html=1;rounded=0;exitX=1;exitY=0.3333333333333333;exitDx=0;exitDy=0;exitPerimeter=0;" edge="1" parent="1" source="aweTBGIYeAGLDlZbZsxo-1">
          <mxGeometry width="50" height="50" relative="1" as="geometry">
            <mxPoint x="160" y="240" as="sourcePoint" />
            <mxPoint x="200" y="200" as="targetPoint" />
          </mxGeometry>
        </mxCell>
        <mxCell id="aweTBGIYeAGLDlZbZsxo-53" value="" style="endArrow=none;html=1;rounded=0;exitX=1;exitY=0.3333333333333333;exitDx=0;exitDy=0;exitPerimeter=0;" edge="1" parent="1" source="aweTBGIYeAGLDlZbZsxo-2">
          <mxGeometry width="50" height="50" relative="1" as="geometry">
            <mxPoint x="140" y="420" as="sourcePoint" />
            <mxPoint x="200" y="420" as="targetPoint" />
          </mxGeometry>
        </mxCell>
        <mxCell id="aweTBGIYeAGLDlZbZsxo-57" value="" style="endArrow=open;endFill=1;endSize=12;html=1;rounded=0;" edge="1" parent="1" target="aweTBGIYeAGLDlZbZsxo-23">
          <mxGeometry width="160" relative="1" as="geometry">
            <mxPoint x="200" y="200" as="sourcePoint" />
            <mxPoint x="310" y="154.5" as="targetPoint" />
          </mxGeometry>
        </mxCell>
        <mxCell id="aweTBGIYeAGLDlZbZsxo-58" value="" style="endArrow=open;endFill=1;endSize=12;html=1;rounded=0;" edge="1" parent="1">
          <mxGeometry width="160" relative="1" as="geometry">
            <mxPoint x="200" y="200" as="sourcePoint" />
            <mxPoint x="250" y="200" as="targetPoint" />
          </mxGeometry>
        </mxCell>
        <mxCell id="aweTBGIYeAGLDlZbZsxo-59" value="" style="endArrow=open;endFill=1;endSize=12;html=1;rounded=0;entryX=0.143;entryY=0.143;entryDx=0;entryDy=0;entryPerimeter=0;" edge="1" parent="1" target="aweTBGIYeAGLDlZbZsxo-8">
          <mxGeometry width="160" relative="1" as="geometry">
            <mxPoint x="200" y="200" as="sourcePoint" />
            <mxPoint x="360" y="210" as="targetPoint" />
          </mxGeometry>
        </mxCell>
        <mxCell id="aweTBGIYeAGLDlZbZsxo-60" value="" style="endArrow=open;endFill=1;endSize=12;html=1;rounded=0;entryX=0;entryY=0;entryDx=0;entryDy=0;" edge="1" parent="1" target="aweTBGIYeAGLDlZbZsxo-11">
          <mxGeometry width="160" relative="1" as="geometry">
            <mxPoint x="200" y="420" as="sourcePoint" />
            <mxPoint x="320" y="470" as="targetPoint" />
          </mxGeometry>
        </mxCell>
        <mxCell id="aweTBGIYeAGLDlZbZsxo-61" value="" style="endArrow=open;endFill=1;endSize=12;html=1;rounded=0;" edge="1" parent="1">
          <mxGeometry width="160" relative="1" as="geometry">
            <mxPoint x="190" y="420" as="sourcePoint" />
            <mxPoint x="250" y="420" as="targetPoint" />
          </mxGeometry>
        </mxCell>
        <mxCell id="aweTBGIYeAGLDlZbZsxo-62" value="" style="endArrow=open;endFill=1;endSize=12;html=1;rounded=0;" edge="1" parent="1" target="aweTBGIYeAGLDlZbZsxo-8">
          <mxGeometry width="160" relative="1" as="geometry">
            <mxPoint x="200" y="420" as="sourcePoint" />
            <mxPoint x="350" y="400" as="targetPoint" />
          </mxGeometry>
        </mxCell>
        <mxCell id="aweTBGIYeAGLDlZbZsxo-63" value="" style="endArrow=open;endFill=1;endSize=12;html=1;rounded=0;entryX=0;entryY=1;entryDx=0;entryDy=0;" edge="1" parent="1" target="aweTBGIYeAGLDlZbZsxo-9">
          <mxGeometry width="160" relative="1" as="geometry">
            <mxPoint x="200" y="420" as="sourcePoint" />
            <mxPoint x="250" y="310" as="targetPoint" />
          </mxGeometry>
        </mxCell>
      </root>
    </mxGraphModel>
  </diagram>
</mxfile>
